<svg width="184" height="61" viewBox="0 0 184 61" fill="none" xmlns="http://www.w3.org/2000/svg">
<path d="M0.128821 0.366228L14.7953 34.4824H23.2855L37.4367 0.109375H29.2041L18.9104 24.6055L8.36142 0.109375H0L0.128821 0.366228Z" fill="white"/>
<path d="M53.9043 34.9936C68.442 34.9936 68.442 24.8621 68.442 24.8621V0.00927734H60.2094V22.8097C60.2094 22.8097 60.3382 27.8112 54.162 27.8112H53.1338C46.9575 27.8112 47.0864 22.8097 47.0864 22.8097V0.00927734H38.8538V24.8621C38.8538 24.8621 38.8538 34.9936 53.3914 34.9936H53.9067H53.9043Z" fill="white"/>
<mask id="mask0_22_189" style="mask-type:luminance" maskUnits="userSpaceOnUse" x="0" y="0" width="184" height="35">
<path d="M0 0V34.9938C71.7459 34.2297 111.971 34.8077 183.717 34.9938V0H0Z" fill="white"/>
</mask>
<g mask="url(#mask0_22_189)">
<path d="M71.4 0.030446H79.8903V23.4516C79.8903 23.4516 79.7614 26.9144 84.0078 26.9144H94.1703V34.2251H80.4055C80.4055 34.2251 71.4 34.551 71.4 23.9653V0.0185547V0.030446Z" fill="white"/>
<path d="M94.9408 10.7543V23.3234C94.9408 23.3234 95.1984 34.097 107.42 34.097H152.831L138.425 0.0449549H129.806L120.984 23.9632H129.291L134.179 10.2406L141.125 26.5293H108.45C108.45 26.5293 103.305 26.7862 103.305 21.5278V11.268C103.305 11.268 103.305 7.03468 108.708 7.03468H121.96V0.0235506H107.167C107.167 0.0235506 94.9456 -1.01813 94.9456 10.7543H94.9408Z" fill="white"/>
</g>
<path d="M153.79 34.0901V0.0237995H163.786L175.222 19.9584V0.019043H183.717V34.0259H174.309L162.023 12.9235V34.0901H153.79Z" fill="white"/>
<path d="M184 60.6816H0.0819092V38.9414H184V60.6816ZM13.4335 44.2305C12.4821 44.2305 11.6093 44.4479 10.8153 44.8818C10.0237 45.3158 9.41054 45.9521 8.98132 46.7891C8.55212 47.626 8.33778 48.606 8.33777 49.7314C8.33777 50.7614 8.52569 51.7271 8.9071 52.626C9.28624 53.5226 9.84248 54.2101 10.5721 54.6846C11.3018 55.1589 12.2868 55.3945 13.412 55.3945C14.5372 55.3945 15.4883 55.0871 16.2655 54.4697C17.0429 53.8545 17.5822 52.9574 17.8827 51.7842L16.454 51.4248V51.4268C16.2561 52.3353 15.8816 53.0222 15.326 53.4824C14.7706 53.9424 14.0937 54.1737 13.2928 54.1738C12.6348 54.1738 12.024 54.0046 11.4589 53.666C10.8937 53.3274 10.4759 52.8166 10.2089 52.1299C9.94196 51.4433 9.8085 50.6423 9.80847 49.7246C9.80847 49.0116 9.92081 48.3195 10.1473 47.6494C10.3739 46.9796 10.7653 46.446 11.3231 46.0479C11.881 45.6497 12.5745 45.4512 13.4042 45.4512C14.1266 45.4512 14.7252 45.6327 15.202 45.9902C15.6765 46.3503 16.0415 46.9226 16.2919 47.707L17.6991 47.376C17.4082 46.3794 16.8957 45.6065 16.1591 45.0557C15.4223 44.5049 14.5135 44.2305 13.4335 44.2305ZM86.8807 44.2275C85.8031 44.2276 84.8541 44.4496 84.0292 44.8906C83.2042 45.3317 82.5724 46.0091 82.1337 46.9199C81.695 47.8307 81.4755 48.8013 81.4755 49.8623C81.4755 50.9234 81.6974 51.8847 82.1385 52.7432C82.5797 53.6015 83.2326 54.2599 84.1005 54.7129C84.966 55.1683 85.93 55.3945 86.9911 55.3945C87.7779 55.3945 88.5436 55.2521 89.2899 54.9707C90.0362 54.6893 90.7584 54.2664 91.4618 53.7061V49.7002L86.8885 49.708V50.9717H90.0624V52.9814C89.7595 53.2533 89.3105 53.5057 88.7216 53.7441C88.1327 53.9825 87.5298 54.1025 86.91 54.1025C86.1994 54.1025 85.5267 53.9446 84.8925 53.6299C84.2584 53.3152 83.7766 52.8339 83.4452 52.1855C83.1137 51.537 82.9491 50.7329 82.9491 49.7695C82.9491 48.99 83.0871 48.2652 83.3612 47.5977C83.5234 47.209 83.7505 46.8536 84.0438 46.5293C84.3347 46.205 84.7183 45.9444 85.1952 45.7441C85.672 45.5463 86.2373 45.4463 86.8905 45.4463C87.4342 45.4463 87.9305 45.5421 88.3788 45.7305C88.8246 45.9212 89.1683 46.1716 89.4091 46.4863C89.6498 46.801 89.8495 47.2326 90.0116 47.7832L91.3016 47.4307C91.1156 46.7058 90.8419 46.1138 90.4843 45.6631C90.1243 45.2126 89.6305 44.8601 88.9989 44.6074C88.367 44.3547 87.6605 44.2275 86.8807 44.2275ZM103.449 44.2275C102.722 44.2275 102.061 44.3501 101.468 44.5957C100.874 44.8413 100.423 45.2008 100.113 45.6729C99.8032 46.1473 99.6484 46.6552 99.6483 47.2012C99.6483 47.697 99.7746 48.1454 100.027 48.5459C100.28 48.9465 100.664 49.2833 101.179 49.5527C101.577 49.7649 102.271 49.9891 103.263 50.2275C104.254 50.466 104.896 50.6428 105.184 50.7549C105.637 50.9265 105.963 51.1379 106.158 51.3906C106.356 51.6434 106.453 51.9445 106.453 52.2783C106.453 52.612 106.351 52.9219 106.148 53.2031C105.943 53.4869 105.633 53.7089 105.216 53.8711C104.798 54.0332 104.319 54.1142 103.773 54.1143C103.161 54.1143 102.607 54.0066 102.116 53.792C101.625 53.5798 101.262 53.3013 101.028 52.9531C100.795 52.6074 100.647 52.1662 100.583 51.625L99.2352 51.7412H99.2303C99.2518 52.4637 99.4498 53.1104 99.8241 53.6826C100.201 54.2548 100.718 54.684 101.379 54.9678C102.039 55.2515 102.857 55.3945 103.835 55.3945C104.607 55.3945 105.302 55.252 105.917 54.9707C106.534 54.6893 107.007 54.2931 107.336 53.7852C107.665 53.2773 107.829 52.7405 107.829 52.1611C107.829 51.5818 107.681 51.0718 107.381 50.626C107.08 50.1825 106.618 49.8129 105.988 49.5244C105.557 49.3265 104.761 49.0972 103.599 48.835C102.436 48.5727 101.717 48.3148 101.443 48.0645C101.164 47.8142 101.023 47.4949 101.023 47.1064C101.023 46.6607 101.222 46.279 101.617 45.9619C102.01 45.6448 102.676 45.4873 103.506 45.4873C104.335 45.4873 104.963 45.6607 105.388 46.0088C105.814 46.3569 106.063 46.8747 106.137 47.5566L107.508 47.4541C107.484 46.82 107.307 46.2526 106.978 45.752C106.649 45.2512 106.177 44.8718 105.566 44.6143C104.956 44.3568 104.25 44.2276 103.449 44.2275ZM125.529 44.2275C124.802 44.2276 124.141 44.3501 123.548 44.5957C122.954 44.8413 122.503 45.2008 122.193 45.6729C121.886 46.1473 121.731 46.6552 121.731 47.2012C121.731 47.697 121.858 48.1454 122.11 48.5459C122.363 48.9465 122.749 49.2833 123.265 49.5527C123.663 49.7649 124.357 49.9891 125.349 50.2275C126.34 50.466 126.979 50.6428 127.27 50.7549C127.723 50.9265 128.048 51.1381 128.243 51.3906C128.441 51.6434 128.539 51.9445 128.539 52.2783C128.539 52.6121 128.438 52.9218 128.233 53.2031C128.028 53.4868 127.719 53.709 127.302 53.8711C126.884 54.0332 126.404 54.1143 125.858 54.1143C125.246 54.1142 124.692 54.0066 124.201 53.792C123.71 53.5798 123.348 53.3011 123.114 52.9531C122.88 52.6074 122.732 52.1662 122.668 51.625L121.321 51.7412H121.311C121.333 52.4637 121.528 53.1103 121.905 53.6826C122.282 54.2549 122.799 54.684 123.46 54.9678C124.12 55.2515 124.938 55.3945 125.916 55.3945C126.688 55.3945 127.38 55.2521 127.998 54.9707C128.615 54.6894 129.087 54.2929 129.416 53.7852C129.745 53.2773 129.91 52.7406 129.91 52.1611C129.91 51.5819 129.762 51.0718 129.462 50.626C129.161 50.1825 128.699 49.8129 128.069 49.5244C127.635 49.3265 126.839 49.0972 125.678 48.835C124.516 48.5727 123.799 48.3148 123.524 48.0645C123.245 47.8141 123.104 47.495 123.104 47.1064C123.104 46.6606 123.302 46.279 123.698 45.9619C124.092 45.6448 124.757 45.4873 125.587 45.4873C126.416 45.4873 127.043 45.6609 127.468 46.0088C127.894 46.3569 128.143 46.8747 128.217 47.5566L129.588 47.4541C129.562 46.82 129.385 46.2526 129.057 45.752C128.73 45.2513 128.258 44.8718 127.647 44.6143C127.037 44.3567 126.33 44.2275 125.529 44.2275ZM171.367 44.2275C170.64 44.2275 169.979 44.3501 169.386 44.5957C168.792 44.8413 168.341 45.2008 168.031 45.6729C167.721 46.1473 167.566 46.6552 167.566 47.2012C167.566 47.697 167.693 48.1454 167.945 48.5459C168.198 48.9465 168.582 49.2833 169.098 49.5527C169.496 49.7649 170.19 49.9892 171.182 50.2275C172.173 50.4659 172.813 50.6428 173.103 50.7549C173.556 50.9265 173.881 51.1381 174.076 51.3906C174.274 51.6434 174.372 51.9445 174.372 52.2783C174.372 52.6121 174.269 52.9218 174.066 53.2031C173.861 53.4869 173.551 53.7089 173.134 53.8711C172.714 54.0331 172.235 54.1142 171.689 54.1143C171.074 54.1143 170.523 54.0066 170.032 53.792C169.541 53.5798 169.178 53.3013 168.944 52.9531C168.711 52.6074 168.561 52.1662 168.499 51.625L167.149 51.7412C167.168 52.4637 167.366 53.1103 167.743 53.6826C168.12 54.2548 168.637 54.684 169.298 54.9678C169.958 55.2515 170.776 55.3945 171.754 55.3945C172.526 55.3945 173.22 55.2519 173.835 54.9707C174.452 54.6893 174.925 54.293 175.254 53.7852C175.583 53.2773 175.748 52.7406 175.748 52.1611C175.748 51.582 175.6 51.0717 175.3 50.626C174.999 50.1826 174.536 49.8129 173.907 49.5244C173.476 49.3265 172.679 49.0972 171.517 48.835C170.354 48.5727 169.636 48.3148 169.362 48.0645C169.083 47.8141 168.942 47.495 168.942 47.1064C168.942 46.6606 169.14 46.279 169.536 45.9619C169.929 45.6448 170.595 45.4873 171.425 45.4873C172.254 45.4874 172.881 45.6609 173.306 46.0088C173.732 46.3569 173.981 46.8747 174.055 47.5566L175.426 47.4541C175.402 46.82 175.225 46.2526 174.896 45.752C174.567 45.2512 174.097 44.8718 173.484 44.6143C172.874 44.3568 172.168 44.2275 171.367 44.2275ZM20.5673 55.2109H27.3134V53.9355H21.996V44.4111H20.5673V55.2109ZM28.8104 55.2109H30.33L31.5145 51.9395H36.0311L37.2899 55.2109H38.9188L34.4979 44.4111H32.9579L28.8104 55.2109ZM41.0389 55.2109H44.9374C45.5883 55.2109 46.1677 55.1489 46.6708 55.0273C47.1762 54.9058 47.6056 54.7247 47.9608 54.4863C48.3161 54.2479 48.6428 53.9208 48.9432 53.5059C49.2436 53.091 49.4898 52.5668 49.6805 51.9326C49.8713 51.3007 49.9667 50.5732 49.9667 49.7529C49.9667 48.7896 49.8232 47.9333 49.5419 47.1846C49.2605 46.4359 48.8334 45.8205 48.2635 45.3389C47.8272 44.967 47.3004 44.7094 46.6805 44.5664C46.2394 44.4639 45.598 44.4111 44.7587 44.4111H41.0389V55.2109ZM52.9139 55.2109H56.8075C57.4609 55.2109 58.0407 55.149 58.5438 55.0273C59.0468 54.9057 59.4786 54.7247 59.8339 54.4863C60.1891 54.2479 60.5159 53.9207 60.8163 53.5059C61.1166 53.0911 61.3619 52.5666 61.5526 51.9326C61.7458 51.3007 61.8417 50.5732 61.8417 49.7529C61.8417 48.7896 61.6982 47.9333 61.4169 47.1846C61.1355 46.4359 60.7084 45.8205 60.1385 45.3389C59.7023 44.967 59.1754 44.7095 58.5555 44.5664C58.1144 44.4639 57.4729 44.4111 56.6337 44.4111H52.9139V55.2109ZM65.0321 55.2109H66.4598V44.4111H65.0321V55.2109ZM69.9462 55.2109H71.3153V46.7246L76.9882 55.2109H78.454V44.4111H77.0829V52.8906L71.41 44.4111H69.9462V55.2109ZM113.807 50.6377V55.2109H115.235V50.6377L119.545 44.4141H117.88L115.789 47.5879C115.329 48.2935 114.935 48.9301 114.611 49.4951C114.273 48.8871 113.907 48.277 113.514 47.6689L111.385 44.4141H109.646L113.807 50.6377ZM132.039 45.6846H135.597V55.2109H137.025V45.6846H140.599V44.4111H132.039V45.6846ZM143.075 55.2109H151.132V53.9355H144.503V50.2607H150.476V48.9922H144.503V45.6846H150.882V44.4111H143.075V55.2109ZM154.044 55.2109H155.42V46.0186L158.543 55.2109H159.831L162.969 46.1738V55.2109H164.348V44.4111H162.425L159.841 51.9248C159.581 52.6854 159.389 53.2628 159.266 53.6562C159.158 53.3033 158.987 52.7714 158.751 52.0586L156.194 44.4111H154.044V55.2109ZM44.7372 45.6846C45.5857 45.6846 46.2009 45.7585 46.5848 45.9062C47.1166 46.1113 47.5678 46.5194 47.9374 47.125C48.307 47.7307 48.493 48.5992 48.493 49.7295C48.493 50.5447 48.3972 51.2384 48.2089 51.8105C48.0205 52.3828 47.7555 52.8382 47.4169 53.1768C47.176 53.4176 46.8544 53.6038 46.4491 53.7373C46.0438 53.8684 45.4861 53.9355 44.7733 53.9355H42.4696V45.6846H44.7372ZM56.6122 45.6846C57.4608 45.6846 58.0759 45.7585 58.4598 45.9062C58.9892 46.1113 59.4428 46.5193 59.8124 47.125C60.182 47.7307 60.368 48.5992 60.368 49.7295C60.368 50.5447 60.2722 51.2384 60.0839 51.8105C59.8955 52.3828 59.6305 52.8382 59.2919 53.1768C59.051 53.4176 58.7294 53.6038 58.3241 53.7373C57.9187 53.8685 57.3603 53.9355 56.6473 53.9355H54.3446V45.6846H56.6122ZM33.6923 45.5469C33.8592 46.131 34.1146 46.8778 34.4579 47.7861L35.5858 50.7764H31.9247L33.1102 47.6094C33.3606 46.9275 33.554 46.2383 33.6923 45.5469Z" fill="white"/>
</svg>
